#!OML:ASF X:\2005_08_12_Meinard\c3d\meinard.ASF
:FULLY-SPECIFIED
:DEGREES
656
root -0.791153 17.1946 -4.96516 -16.0694 -65.7697 6.48781
lowerback 38.0937 -4.3002 -0.800148
upperback 6.73038 -6.74022 -2.66568
thorax -11.4224 -3.3102 0.440061
lowerneck -2.65501 -12.5571 -1.50849
upperneck -6.83598 -16.5439 12.0791
head -0.496968 -8.52621 3.93057
rclavicle -1.53064e-014 -2.46493e-014
rhumerus 42.2987 40.8389 57.2907
rradius 30.8832
rwrist -90.5787
rhand -43.6841 -5.34312
rfingers 7.12502
rthumb -16.517 -34.6601
lclavicle -1.53064e-014 -2.46493e-014
lhumerus 191.18 217.156 253.804
lradius 92.3523
lwrist 16.5025
lhand -13.338 -10.776
lfingers 7.12502
lthumb 12.7673 18.8137
rfemur -4.09299 -0.723602 16.5873
rtibia 34.167
rfoot -15.3043 12.6336
rtoes -3.99492
lfemur 10.3157 -6.92638 -7.65437
ltibia 22.8683
lfoot -3.58668 15.8033
ltoes -31.1393
657
root -0.762235 17.1941 -4.94154 -15.9938 -65.8724 6.34992
lowerback 38.1779 -4.26724 -0.829966
upperback 6.69029 -6.70955 -2.64078
thorax -11.4911 -3.29286 0.475786
lowerneck -2.72701 -12.517 -1.65593
upperneck -6.48377 -16.5118 12.0377
head -0.363748 -8.48863 3.91717
rclavicle 5.36719e-014 2.38542e-015
rhumerus 42.1828 40.7364 56.9575
rradius 30.939
rwrist -90.4958
rhand -42.8168 -4.09235
rfingers 7.12502
rthumb -15.6819 -33.4769
lclavicle 5.36719e-014 2.38542e-015
lhumerus 193.346 218.201 252.963
lradius 93.5778
lwrist 17.1564
lhand -13.1514 -10.8687
lfingers 7.12502
lthumb 12.9473 18.7096
rfemur -4.13067 -0.817356 16.5613
rtibia 34.1913
rfoot -15.188 12.5786
rtoes -4.56128
lfemur 10.3898 -6.89418 -7.73082
ltibia 22.8738
lfoot -3.86045 15.9644
ltoes -31.2648
658
root -0.733703 17.1946 -4.91677 -15.9867 -65.979 6.27148
lowerback 38.2573 -4.21984 -0.888965
upperback 6.66225 -6.67286 -2.61557
thorax -11.5415 -3.27297 0.523288
lowerneck -2.79488 -12.4729 -1.82197
upperneck -6.1565 -16.472 12.0272
head -0.235366 -8.44893 3.91946
rclavicle -2.5842e-014 -4.21423e-014
rhumerus 42.1269 40.6515 56.6869
rradius 31.0035
rwrist -90.1979
rhand -42.752 -3.14474
rfingers 7.12502
rthumb -15.6195 -32.5341
lclavicle -2.5842e-014 -4.21423e-014
lhumerus 195.405 219.159 252.128
lradius 94.7843
lwrist 17.7336
lhand -13.0582 -11.1081
lfingers 7.12502
lthumb 13.0371 18.4645
rfemur -4.15878 -0.91192 16.5091
rtibia 34.2348
rfoot -15.0584 12.5073
rtoes -5.02868
lfemur 10.4819 -6.86841 -7.8442
ltibia 22.8749
lfoot -4.12045 16.1404
ltoes -31.3915
659
root -0.705701 17.1951 -4.89148 -15.9526 -66.1121 6.16376
lowerback 38.3372 -4.17417 -0.984098
upperback 6.63047 -6.6498 -2.56806
thorax -11.5899 -3.25824 0.618976
lowerneck -2.87473 -12.4014 -1.93638
upperneck -5.82405 -16.3969 11.95
head -0.11683 -8.39139 3.89312
rclavicle -6.77856e-014 4.6118e-014
rhumerus 41.9895 40.3629 56.1597
rradius 31.0795
rwrist -89.3592
rhand -43.4981 -2.64148
rfingers 7.12502
rthumb -16.338 -31.9733
lclavicle -6.77856e-014 4.6118e-014
lhumerus 197.451 219.909 251.341
lradius 95.7979
lwrist 18.1155
lhand -12.8962 -11.5767
lfingers 7.12502
lthumb 13.1933 17.9858
rfemur -4.20421 -1.0583 16.4774
rtibia 34.3022
rfoot -14.9555 12.4245
rtoes -5.72316
lfemur 10.5954 -6.82155 -7.93878
ltibia 22.857
lfoot -4.37744 16.3287
ltoes -31.5296
660
root -0.677088 17.1963 -4.86594 -15.9276 -66.2399 6.08119
lowerback 38.4092 -4.12816 -1.09258
upperback 6.58977 -6.63205 -2.52646
thorax -11.6454 -3.24493 0.717481
lowerneck -2.92794 -12.3284 -2.04649
upperneck -5.50359 -16.3183 11.8776
head -0.00697803 -8.33375 3.87115
rclavicle -6.95746e-015 5.88403e-014
rhumerus 41.8419 40.0568 55.5688
rradius 31.1519
rwrist -88.1414
rhand -44.9038 -2.65398
rfingers 7.12502
rthumb -17.691 -31.8692
lclavicle -6.95746e-015 5.88403e-014
lhumerus 199.472 220.6 250.566
lradius 96.6428
lwrist 18.3184
lhand -12.826 -12.212
lfingers 7.12502
lthumb 13.2609 17.3461
rfemur -4.28154 -1.26724 16.4308
rtibia 34.3916
rfoot -14.8477 12.3466
rtoes -6.37068
lfemur 10.6901 -6.76906 -8.04729
ltibia 22.8128
lfoot -4.58177 16.5028
ltoes -31.6776
661
root -0.650029 17.1987 -4.83984 -15.9153 -66.3668 6.00566
lowerback 38.4753 -4.09391 -1.20736
upperback 6.55883 -6.63427 -2.50075
thorax -11.6891 -3.24111 0.809921
lowerneck -2.99544 -12.2316 -2.13433
upperneck -5.18228 -16.2088 11.816
head 0.102394 -8.26141 3.8502
rclavicle -1.59028e-014 4.77083e-015
rhumerus 41.731 39.7111 54.92
rradius 31.1921
rwrist -86.7459
rhand -46.8202 -3.09555
rfingers 7.12502
rthumb -19.5344 -32.1342
lclavicle -1.59028e-014 4.77083e-015
lhumerus 201.474 221.192 249.686
lradius 97.4117
lwrist 18.3911
lhand -12.7084 -12.9832
lfingers 7.12502
lthumb 13.3742 16.5676
rfemur -4.36518 -1.52806 16.3884
rtibia 34.5047
rfoot -14.7462 12.23
rtoes -7.17999
lfemur 10.8049 -6.70256 -8.15632
ltibia 22.7551
lfoot -4.77394 16.6417
ltoes -31.8929
662
root -0.62366 17.2006 -4.81311 -15.9299 -66.5128 5.94278
lowerback 38.5568 -4.04566 -1.34402
upperback 6.51926 -6.62689 -2.46396
thorax -11.7445 -3.23171 0.922607
lowerneck -3.06589 -12.14 -2.21106
upperneck -4.85488 -16.1065 11.7312
head 0.211519 -8.19244 3.81973
rclavicle 8.94531e-015 1.27222e-014
rhumerus 41.7186 39.3918 54.4046
rradius 31.2033
rwrist -85.3003
rhand -48.9065 -4.04726
rfingers 7.12502
rthumb -21.5393 -32.8695
lclavicle 8.94531e-015 1.27222e-014
lhumerus 203.464 221.743 248.749
lradius 98.117
lwrist 18.3837
lhand -12.58 -13.7779
lfingers 7.12502
lthumb 13.4981 15.7646
rfemur -4.44546 -1.849 16.3443
rtibia 34.6367
rfoot -14.6442 12.1054
rtoes -8.03094
lfemur 10.953 -6.627 -8.27133
ltibia 22.6868
lfoot -4.96021 16.7834
ltoes -32.1663
663
root -0.597049 17.2028 -4.78687 -15.8805 -66.6473 5.8166
lowerback 38.6472 -4.00724 -1.47807
upperback 6.47781 -6.62775 -2.40457
thorax -11.8023 -3.22572 1.06206
lowerneck -3.17713 -12.0433 -2.29252
upperneck -4.49775 -15.9991 11.6094
head 0.333716 -8.11852 3.77457
rclavicle 5.12864e-014 -3.97569e-014
rhumerus 41.7341 39.0266 53.9019
rradius 31.1761
rwrist -83.8798
rhand -50.8751 -5.42387
rfingers 7.12502
rthumb -23.4288 -34.0176
lclavicle 5.12864e-014 -3.97569e-014
lhumerus 205.426 222.2 247.809
lradius 98.7646
lwrist 18.2692
lhand -12.3353 -14.5539
lfingers 7.12502
lthumb 13.7339 14.9728
rfemur -4.54186 -2.21736 16.3308
rtibia 34.793
rfoot -14.5253 11.939
rtoes -8.80822
lfemur 11.0839 -6.54471 -8.34676
ltibia 22.6057
lfoot -5.12305 16.9083
ltoes -32.3577
664
root -0.571484 17.2058 -4.75973 -15.8879 -66.787 5.74622
lowerback 38.7275 -3.96442 -1.64558
upperback 6.43895 -6.63743 -2.34942
thorax -11.8509 -3.22306 1.21721
lowerneck -3.24401 -11.9295 -2.40523
upperneck -4.17742 -15.8651 11.5427
head 0.442584 -8.03445 3.75939
rclavicle -1.40541e-013 3.97569e-014
rhumerus 41.829 38.6772 53.5077
rradius 31.1254
rwrist -82.7313
rhand -52.419 -6.89412
rfingers 7.12502
rthumb -24.9091 -35.291
lclavicle -1.40541e-013 3.97569e-014
lhumerus 207.326 222.604 246.856
lradius 99.3737
lwrist 18.1009
lhand -12.0923 -15.268
lfingers 7.12502
lthumb 13.9681 14.2427
rfemur -4.63639 -2.65522 16.2947
rtibia 34.9385
rfoot -14.4019 11.7604
rtoes -9.76298
lfemur 11.2475 -6.44851 -8.45123
ltibia 22.4871
lfoot -5.24118 17.0195
ltoes -32.6034
665
root -0.547213 17.2086 -4.73232 -15.8684 -66.9155 5.66689
lowerback 38.7648 -3.934 -1.79893
upperback 6.41097 -6.65827 -2.31205
thorax -11.8755 -3.22681 1.34797
lowerneck -3.33517 -11.8148 -2.44005
upperneck -3.86413 -15.7312 11.4349
head 0.542657 -7.95137 3.71739
rclavicle -8.94531e-015 3.33958e-014
rhumerus 42.0546 38.4378 53.3487
rradius 31.0523
rwrist -82.0784
rhand -53.2643 -8.31265
rfingers 7.12502
rthumb -25.7189 -36.5949
lclavicle -8.94531e-015 3.33958e-014
lhumerus 209.183 222.98 245.895
lradius 99.9617
lwrist 17.9376
lhand -11.7833 -15.8559
lfingers 7.12502
lthumb 14.2658 13.6341
rfemur -4.75069 -3.15943 16.2557
rtibia 35.1016
rfoot -14.2468 11.586
rtoes -10.4207
lfemur 11.3894 -6.31986 -8.53525
ltibia 22.3666
lfoot -5.36486 17.0877
ltoes -32.8225
666
root -0.524006 17.2163 -4.70593 -15.8145 -67.0454 5.52709
lowerback 38.8381 -3.90738 -1.93823
upperback 6.37732 -6.67849 -2.26655
thorax -11.9193 -3.22981 1.48223
lowerneck -3.43762 -11.6977 -2.48861
upperneck -3.51796 -15.5958 11.3209
head 0.655924 -7.86599 3.67424
rclavicle -2.04748e-014 2.38542e-014
rhumerus 42.288 38.1912 53.2564
rradius 30.9892
rwrist -81.8699
rhand -53.206 -9.23426
rfingers 7.12502
rthumb -25.6631 -37.5245
lclavicle -2.04748e-014 2.38542e-014
lhumerus 210.884 223.346 244.961
lradius 100.578
lwrist 17.807
lhand -11.4621 -16.3209
lfingers 7.12502
lthumb 14.5753 13.147
rfemur -4.83029 -3.68002 16.2563
rtibia 35.2589
rfoot -14.0894 11.3302
rtoes -11.1147
lfemur 11.5524 -6.27492 -8.60496
ltibia 22.2446
lfoot -5.56655 17.2316
ltoes -32.7886
667
root -0.500909 17.2189 -4.67887 -15.8179 -67.1662 5.44993
lowerback 38.8892 -3.87529 -2.10117
upperback 6.34816 -6.70193 -2.22781
thorax -11.9486 -3.2341 1.62127
lowerneck -3.49145 -11.5828 -2.53587
upperneck -3.22342 -15.4594 11.2316
head 0.746437 -7.7839 3.645
rclavicle -5.00937e-014 -2.22639e-014
rhumerus 42.0725 37.5474 52.3553
rradius 30.8041
rwrist -81.2389
rhand -52.2319 -9.673
rfingers 7.12502
rthumb -24.7297 -38.0946
lclavicle -5.00937e-014 -2.22639e-014
lhumerus 212.403 223.686 244.11
lradius 101.183
lwrist 17.6229
lhand -11.1537 -16.7209
lfingers 7.12502
lthumb 14.8724 12.7253
rfemur -4.9291 -4.23402 16.2248
rtibia 35.4349
rfoot -13.9221 11.0429
rtoes -11.6585
lfemur 11.6998 -6.22362 -8.69612
ltibia 22.1435
lfoot -5.76407 17.3439
ltoes -32.7935
668
root -0.479155 17.2211 -4.65208 -15.7661 -67.2818 5.32247
lowerback 38.9079 -3.85321 -2.24091
upperback 6.33398 -6.72839 -2.19509
thorax -11.9524 -3.24182 1.74069
lowerneck -3.58585 -11.4689 -2.56978
upperneck -2.90912 -15.3265 11.1377
head 0.849114 -7.70222 3.60892
rclavicle 5.32743e-014 -4.77083e-015
rhumerus 41.7787 36.8247 51.3521
rradius 30.6224
rwrist -80.8048
rhand -50.5009 -9.64898
rfingers 7.12502
rthumb -23.0698 -38.288
lclavicle 5.32743e-014 -4.77083e-015
lhumerus 213.867 224.01 243.256
lradius 101.786
lwrist 17.4921
lhand -10.9606 -17.0098
lfingers 7.12502
lthumb 15.0584 12.4226
rfemur -5.02326 -4.84185 16.2144
rtibia 35.6101
rfoot -13.6993 10.6744
rtoes -11.7954
lfemur 11.8298 -6.17564 -8.75805
ltibia 22.0686
lfoot -5.97849 17.4349
ltoes -32.7009
669
root -0.457291 17.223 -4.62449 -15.712 -67.3771 5.18563
lowerback 38.9291 -3.85208 -2.35883
upperback 6.32449 -6.77378 -2.17236
thorax -11.9545 -3.25889 1.84619
lowerneck -3.69669 -11.3446 -2.63642
upperneck -2.58185 -15.1805 11.0778
head 0.964138 -7.61329 3.58923
rclavicle -3.85642e-014 -1.27222e-014
rhumerus 41.5327 36.126 50.4925
rradius 30.5268
rwrist -80.6693
rhand -48.4218 -9.20334
rfingers 7.12502
rthumb -21.0736 -38.0782
lclavicle -3.85642e-014 -1.27222e-014
lhumerus 215.345 224.331 242.307
lradius 102.393
lwrist 17.3613
lhand -10.9613 -17.2332
lfingers 7.12502
lthumb 15.0578 12.1992
rfemur -5.11052 -5.47845 16.1961
rtibia 35.8128
rfoot -13.4494 10.2034
rtoes -11.553
lfemur 11.9186 -6.08847 -8.80225
ltibia 22.0617
lfoot -6.2104 17.4669
ltoes -32.6324
670
root -0.434152 17.225 -4.59526 -15.6728 -67.493 5.09154
lowerback 38.9382 -3.85044 -2.46303
upperback 6.29467 -6.81423 -2.16485
thorax -11.9792 -3.27248 1.92687
lowerneck -3.76162 -11.2225 -2.67504
upperneck -2.27762 -15.0357 10.9995
head 1.05986 -7.52734 3.56325
rclavicle 6.59965e-014 2.70347e-014
rhumerus 41.2976 35.5005 49.7216
rradius 30.5624
rwrist -80.6086
rhand -46.3731 -8.62029
rfingers 7.12502
rthumb -19.1046 -37.702
lclavicle 6.59965e-014 2.70347e-014
lhumerus 216.746 224.637 241.368
lradius 103.01
lwrist 17.2151
lhand -11.101 -17.3939
lfingers 7.12502
lthumb 14.9232 12.0486
rfemur -5.21703 -6.14929 16.1588
rtibia 36.0053
rfoot -13.1677 9.66187
rtoes -10.9922
lfemur 11.9759 -6.03539 -8.89192
ltibia 22.1047
lfoot -6.47056 17.5391
ltoes -32.5875
